<svg enable-background="new 0 0 64 72" viewBox="0 0 64 72" xmlns="http://www.w3.org/2000/svg"><path d="m32 6-21.1 29.9 21.1 30.1 21.1-30.1z" fill="#fff"/><path d="m32 72c-2 0-3.8-1-4.9-2.5l-21.1-30.1c-1.5-2.1-1.4-4.8 0-6.9l21.1-30c1.1-1.6 3-2.5 4.9-2.5 2 0 3.8 1 4.9 2.5l21 29.9c1.4 2.1 1.5 4.8 0 6.9l-21 30.1c-1.1 1.6-2.9 2.6-4.9 2.6zm-13.8-36.1 13.8 19.7 13.7-19.6-13.7-19.6z" fill="#fff"/><path d="m32 6-21.1 29.9 21.1 30.1 21-30.1zm2.5 35.9-2.5 17.5-2.5-17.5-7.8 4.5 4.7-8.2-9.9-2.4 9.9-2.2-4.7-8 7.8 4.5 2.5-17.3 2.5 17.5 7.8-4.5-4.7 8.1 9.9 2.1-9.9 2.4 4.7 8.2z"/></svg>